<?xml version="1.0"?>
<svg xmlns="http://www.w3.org/2000/svg" xmlns:xlink="http://www.w3.org/1999/xlink" version="1.1" id="Capa_1" x="0px" y="0px" viewBox="0 0 512 512" style="enable-background:new 0 0 512 512;" xml:space="preserve" width="512px" height="512px" class=""><g><path style="fill:#005BFF" d="M202.758,209.864c-12.849-4.594-27.647-0.316-36.024,10.463c-2.087,2.686-3.732,5.707-4.876,8.909  l-49.866,139.623L62.127,229.237c-4.873-13.645-18.817-22.556-33.281-21.096C16.07,209.43,5.098,218.465,1.37,230.745  c-1.981,6.524-1.809,13.597,0.484,20.017l80.002,224.004c4.536,12.703,16.647,21.237,30.137,21.237s25.601-8.534,30.137-21.237  l80.002-224.004C228.065,234.147,219.374,215.798,202.758,209.864z" data-original="#9D5CAD" class="" data-old_color="#0054FF"/><path style="fill:#000FFF" d="M97.846,474.767L17.845,250.763c-2.293-6.421-2.465-13.494-0.484-20.018  c3.243-10.681,11.968-18.901,22.594-21.71c-3.565-0.94-7.318-1.276-11.108-0.894C16.07,209.43,5.098,218.465,1.37,230.745  c-1.981,6.524-1.809,13.597,0.484,20.018l80.002,224.004c4.536,12.703,16.647,21.237,30.137,21.237c2.741,0,5.42-0.369,7.995-1.038  C109.89,492.347,101.461,484.889,97.846,474.767z" data-original="#8759B5" class="active-path" data-old_color="#0007FF"/><path style="fill:#005BFF" d="M271.995,207.999c-17.645,0-32.001,14.355-32.001,32.001v224.004  c0,17.645,14.355,32.001,32.001,32.001c17.645,0,32.001-14.355,32.001-32.001V240C303.996,222.355,289.641,207.999,271.995,207.999z  " data-original="#9D5CAD" class="" data-old_color="#0054FF"/><path style="fill:#000FFF" d="M255.995,464.004V240c0-14.883,10.214-27.427,24-30.988c-2.558-0.661-5.239-1.013-8-1.013  c-17.645,0-32.001,14.355-32.001,32.001v224.004c0,17.645,14.355,32.001,32.001,32.001c2.761,0,5.442-0.352,8-1.013  C266.209,491.431,255.995,478.887,255.995,464.004z" data-original="#8759B5" class="active-path" data-old_color="#0007FF"/><path style="fill:#005BFF" d="M480,207.999H351.997c-17.645,0-32.001,14.355-32.001,32.001v224.004  c0,17.645,14.355,32.001,32.001,32.001c17.645,0,32.001-14.355,32.001-32.001v-64.001H480c17.645,0,32.001-14.355,32.001-32.001V240  C512,222.355,497.645,207.999,480,207.999z M447.999,272v64.001h-64.001V272H447.999z" data-original="#9D5CAD" class="" data-old_color="#0054FF"/><path style="fill:#000FFF" d="M335.997,464.004V240c0-17.645,14.355-32.001,32.001-32.001h-16  c-17.645,0-32.001,14.355-32.001,32.001v224.004c0,17.645,14.355,32.001,32.001,32.001c2.761,0,5.442-0.352,8-1.013  C346.211,491.431,335.997,478.887,335.997,464.004z" data-original="#8759B5" class="active-path" data-old_color="#0007FF"/><path style="fill:#FFE17A;" d="M374.145,74.877c-2.177-2.614-5.77-3.565-8.955-2.37l-58.058,21.771l-28.48-42.719  c-1.483-2.226-3.981-3.563-6.656-3.563c-2.675,0-5.173,1.337-6.656,3.563l-28.48,42.719l-58.058-21.771  c-3.184-1.194-6.777-0.244-8.955,2.37c-2.178,2.613-2.464,6.318-0.714,9.236l48.001,80.002c1.446,2.409,4.05,3.884,6.86,3.884  h96.002c2.811,0,5.414-1.475,6.86-3.884l48.001-80.002C376.608,81.195,376.322,77.49,374.145,74.877z" data-original="#FFE17A"/><g>
	<path style="fill:#FDC40A;" d="M271.995,15.995c-13.233,0-24,10.767-24,24s10.767,24,24,24c13.233,0,24-10.767,24-24   S285.23,15.995,271.995,15.995z" data-original="#FDC40A"/>
	<path style="fill:#FDC40A;" d="M375.998,47.996c-13.233,0-24,10.767-24,24s10.767,24,24,24s24-10.767,24-24   S389.232,47.996,375.998,47.996z" data-original="#FDC40A"/>
	<path style="fill:#FDC40A;" d="M167.993,47.996c-13.233,0-24,10.767-24,24s10.767,24,24,24c13.233,0,24-10.767,24-24   S181.228,47.996,167.993,47.996z" data-original="#FDC40A"/>
	<path style="fill:#FDC40A;" d="M327.997,159.998H215.994v24c0,4.418,3.582,8,8,8h96.002c4.418,0,8-3.582,8-8V159.998z" data-original="#FDC40A"/>
</g><path style="fill:#FEA727" d="M239.995,183.999v-24h-24v24c0,4.418,3.582,8,8,8h24  C243.577,191.999,239.995,188.417,239.995,183.999z" data-original="#FEA727" class=""/></g> </svg>
